<svg width="81" height="80" viewBox="0 0 81 80" fill="none" xmlns="http://www.w3.org/2000/svg">
<g clip-path="url(#clip0_152_207)">
<path d="M54.7295 7.84188C50.6075 6.47672 45.0439 4.84375 40.667 4.84375C36.2901 4.84375 30.7262 6.47672 26.6045 7.84188V18.9062H0.666992V75.1562H80.667V18.9062H54.7295V7.84188ZM31.292 11.2633C33.5431 10.6084 37.697 9.53125 40.667 9.53125C43.6373 9.53125 47.7912 10.6084 50.042 11.2633V18.9062H31.292V11.2633ZM47.6982 56.4016V51.7188H33.6357V56.4016C28.8926 56.3567 24.1461 55.6697 19.5732 54.3909V23.5938H61.917V54.3473C57.2962 55.6542 52.4954 56.3563 47.6982 56.4016ZM43.0107 56.4062V58.75C43.0107 60.0423 41.9593 61.0938 40.667 61.0938C39.3746 61.0938 38.3232 60.0423 38.3232 58.75V56.4062H43.0107ZM14.8857 23.5938V52.8495C11.5495 51.5833 8.34762 49.992 5.35449 48.1002V23.5938H14.8857ZM5.35449 70.4688V53.5623C13.7546 58.2975 23.659 61.0767 34.0386 61.093C35.0059 63.8213 37.6112 65.7812 40.667 65.7812C43.7228 65.7812 46.3281 63.8213 47.2954 61.093C57.6756 61.0767 67.5798 58.2972 75.9795 53.5623V70.4688H5.35449ZM75.9795 48.1002C73.0331 49.9625 69.8845 51.5337 66.6045 52.7903V23.5938H75.9795V48.1002Z" fill="#525252"/>
</g>
<defs>
<clipPath id="clip0_152_207">
<rect width="80" height="80" fill="white" transform="translate(0.666992)"/>
</clipPath>
</defs>
</svg>
