<svg width="80" height="80" viewBox="0 0 80 80" fill="none" xmlns="http://www.w3.org/2000/svg">
<g clip-path="url(#clip0_152_163)">
<path d="M56.5615 49.2148H61.2486V53.902H56.5615V49.2148Z" fill="white"/>
<path d="M0.00308593 60.9326H48.4336C49.1638 61.7476 49.9877 62.4767 50.8878 63.1037L44.6536 73.6293L50.0988 72.2681C52.6428 71.6322 55.3623 72.9156 56.5645 75.3201L58.9046 80.0002L61.2447 75.3201C62.447 72.9156 65.1665 71.6321 67.7105 72.2681L73.1308 73.6232L66.939 63.0917C67.8324 62.4675 68.6501 61.7424 69.3755 60.9328H79.9965V0H0.00292969V60.9326H0.00308593ZM65.9353 39.3847C63.8658 38.1849 61.4641 37.497 58.9046 37.497C52.794 37.497 47.5822 41.4154 45.6476 46.8713H17.3787L14.0645 43.557V17.3756L17.3787 14.0614H62.6209L65.9352 17.3756V39.3847H65.9353ZM58.9046 42.1841C64.0736 42.1841 68.2789 46.3894 68.2789 51.5584C68.2789 56.7273 64.0736 60.9326 58.9046 60.9326C53.7357 60.9326 49.5304 56.7273 49.5304 51.5584C49.5304 46.3894 53.7357 42.1841 58.9046 42.1841ZM64.1908 67.6652C62.1986 68.1064 60.3478 69.1315 58.9046 70.6161C57.4644 69.1348 55.6191 68.111 53.6318 67.6682L55.1474 65.1092C56.3439 65.4413 57.6036 65.6196 58.9045 65.6196C60.2136 65.6196 61.4811 65.4391 62.6843 65.1029L64.1908 67.6652ZM4.69021 4.68712H75.3096V56.2455H72.1617C72.6818 54.7787 72.966 53.2012 72.966 51.5584C72.966 48.6906 72.1023 46.0212 70.6224 43.7949V15.4342L64.5625 9.37425H15.4372L9.37734 15.4342V45.4984L15.4372 51.5584H44.8431C44.8431 53.2012 45.1273 54.7787 45.6474 56.2455H4.69021V4.68712Z" fill="white"/>
<path d="M18.752 18.7485H61.2486V23.4357H18.752V18.7485Z" fill="white"/>
<path d="M18.752 28.1228H61.2486V32.8099H18.752V28.1228Z" fill="white"/>
<path d="M18.752 37.4969H42.5001V42.1841H18.752V37.4969Z" fill="white"/>
</g>
<defs>
<clipPath id="clip0_152_163">
<rect width="80" height="80" fill="white"/>
</clipPath>
</defs>
</svg>
