<svg width="80" height="80" viewBox="0 0 80 80" fill="none" xmlns="http://www.w3.org/2000/svg">
<g clip-path="url(#clip0_152_227)">
<path d="M66.5611 32.2061L71.5269 37.6569H58.7465V28.2853H49.3749V22.2104C48.1887 21.5703 45.4861 19.9843 42.3461 19.2298V8.48329L47.8167 13.4615L50.9704 9.99587L40.0218 0.0327148L29.0732 9.99587L32.2269 13.4615L37.66 8.51734V19.2296C34.757 19.9273 32.268 21.3271 30.6312 22.2103V28.2851H21.2596V37.6568H8.49509L13.4792 32.2097L10.0222 29.0464L0 39.9998L10.0222 50.9531L13.4792 47.7899L8.49509 42.3428H21.2597V56.4002H37.6789V71.4994L32.2271 66.5382L29.0734 70.0038L40.0219 79.967L50.9705 70.0038L47.8168 66.5382L42.3463 71.4994V56.4002H58.7467V42.3428H71.5271L66.5612 47.7936L70.0253 50.9492L80.0002 39.9997L70.025 29.0505L66.5611 32.2061ZM35.3172 25.0452C36.8332 24.3409 38.8119 23.5995 40.0031 23.5995C41.1943 23.5995 43.1735 24.3411 44.6889 25.045V28.2853H35.3172V25.0452ZM54.0605 32.9711V37.6569H25.9456V32.9711H54.0605ZM25.9456 51.7144V42.3428H37.6601V47.0286H42.346V42.3428H54.0605V51.7144H25.9456Z" fill="#525252"/>
</g>
<defs>
<clipPath id="clip0_152_227">
<rect width="80" height="80" fill="white"/>
</clipPath>
</defs>
</svg>
