<svg width="81" height="80" viewBox="0 0 81 80" fill="none" xmlns="http://www.w3.org/2000/svg">
<g clip-path="url(#clip0_152_201)">
<path d="M66.8941 32.2062L71.86 37.6571H59.0795V28.2854H49.7079V22.2105C48.5217 21.5705 45.8191 19.9845 42.6791 19.2299V8.48341L48.1497 13.4616L51.3034 9.996L40.3548 0.0328369L29.4062 9.996L32.5599 13.4616L37.993 8.51746V19.2297C35.09 19.9274 32.601 21.3273 30.9643 22.2104V28.2852H21.5926V37.6569H8.8281L13.8123 32.2098L10.3552 29.0465L0.333008 40L10.3552 50.9532L13.8123 47.79L8.8281 42.3429H21.5928V56.4004H38.0119V71.4995L32.5601 66.5383L29.4064 70.0039L40.355 79.9671L51.3035 70.0039L48.1498 66.5383L42.6793 71.4995V56.4004H59.0797V42.3429H71.8601L66.8942 47.7937L70.3583 50.9493L80.3332 39.9998L70.358 29.0506L66.8941 32.2062ZM35.6502 25.0453C37.1663 24.341 39.1449 23.5996 40.3361 23.5996C41.5274 23.5996 43.5065 24.3412 45.0219 25.0451V28.2854H35.6502V25.0453ZM54.3935 32.9712V37.6571H26.2786V32.9712H54.3935ZM26.2786 51.7145V42.3429H37.9931V47.0287H42.679V42.3429H54.3935V51.7145H26.2786Z" fill="white"/>
</g>
<defs>
<clipPath id="clip0_152_201">
<rect width="80" height="80" fill="white" transform="translate(0.333008)"/>
</clipPath>
</defs>
</svg>
