<svg width="80" height="80" viewBox="0 0 80 80" fill="none" xmlns="http://www.w3.org/2000/svg">
<g clip-path="url(#clip0_152_195)">
<path d="M80 39.9999L39.9999 0L0 39.9999L39.9999 79.9998L80 39.9999ZM24.9716 58.3426L27.3108 56.0034L29.3707 58.063C32.1117 60.8042 36.5721 60.8044 39.3135 58.063C42.0546 55.3218 42.0546 50.8614 39.3135 48.1202L37.2539 46.0605L40.0001 43.3143L46.0608 49.375L51.4351 44.0007C52.3489 43.0871 53.8353 43.0871 54.749 44.0007C55.6646 44.9161 55.6649 46.3986 54.749 47.3144L49.3745 52.6889L55.0284 58.3426L40.0001 73.3708L24.9716 58.3426ZM58.3429 55.0281L56.0035 52.6887L58.0633 50.629C60.811 47.8814 60.8114 43.4339 58.0633 40.6862C55.322 37.9449 50.8619 37.9449 48.1205 40.6862L46.0606 42.746L43.3144 39.9998L49.3751 33.939L44.0008 28.5647C43.0872 27.6511 43.0872 26.1644 44.0008 25.2508C44.9144 24.3373 46.401 24.3373 47.3145 25.2507L52.6887 30.6253L58.3426 24.9713L73.371 39.9998L58.3429 55.0281ZM55.0281 21.6571L52.6889 23.9963L50.6292 21.9365C47.8878 19.1954 43.4275 19.1953 40.6863 21.9365C37.9453 24.6777 37.9453 29.1382 40.6863 31.8794L42.746 33.939L39.9998 36.6853C39.1326 35.8181 34.7039 31.3894 33.939 30.6245L28.5647 35.9989C27.6493 36.9145 26.1668 36.9148 25.251 35.9989C24.3374 35.0853 24.3374 33.5987 25.251 32.6851L30.6253 27.3108L24.9718 21.6573L39.9999 6.62915L55.0281 21.6571ZM21.6573 24.9718L23.9962 27.3107L21.9363 29.3705C19.1951 32.1117 19.1951 36.5721 21.9363 39.3134C24.6838 42.0608 29.1313 42.0615 31.8792 39.3134L33.939 37.2535L36.6853 39.9998L30.6247 46.0605L35.999 51.4348C36.9126 52.3484 36.9126 53.8351 35.999 54.7487C35.0853 55.6623 33.5989 55.6623 32.6852 54.7487L27.3108 49.3744L21.6571 55.0281L6.62915 40.0001L21.6573 24.9718Z" fill="#525252"/>
</g>
<defs>
<clipPath id="clip0_152_195">
<rect width="80" height="80" fill="white"/>
</clipPath>
</defs>
</svg>
