<svg width="81" height="80" viewBox="0 0 81 80" fill="none" xmlns="http://www.w3.org/2000/svg">
<path d="M44.3004 30.633L40.333 22.594L36.3657 30.633L27.4941 31.9221L33.9137 38.1794L32.3983 47.015L40.3332 42.8434L48.2681 47.015L46.7527 38.1794L53.1722 31.9221L44.3004 30.633ZM42.042 38.4458L40.333 37.5474L38.624 38.4458L38.9505 36.5429L37.5679 35.1952L39.4786 34.9175L40.333 33.1862L41.1874 34.9175L43.0982 35.1952L41.7156 36.5429L42.042 38.4458Z" fill="#525252"/>
<path d="M12.7688 42.8408L9.67115 52.4701L20.3262 55.8537L22.6507 65.5157L28.6133 63.9474V79.9998L40.3326 71.2104L52.0519 79.9998V64.0319L57.5681 65.72L60.8629 55.3562L70.5681 53.2933L67.9687 42.5757L75.5088 35.7654L67.8964 27.7799L70.9942 18.1501L60.3788 14.7816L58.3187 5.07477L47.5703 7.68098L40.3757 0L32.7549 7.7313L23.1723 4.64865L19.8037 15.2645L10.0969 17.3271L12.6963 28.0448L5.15625 34.8551L12.7688 42.8408ZM40.3326 51.7174C31.2858 51.7174 23.9256 44.3572 23.9256 35.3104C23.9256 26.2636 31.2858 18.9034 40.3326 18.9034C49.3794 18.9034 56.7396 26.2636 56.7396 35.3104C56.7396 44.3572 49.3794 51.7174 40.3326 51.7174ZM40.3326 65.3509L33.301 70.6246V55.1985C35.5014 55.9789 37.8679 56.4051 40.3326 56.4051C42.7972 56.4051 45.1637 55.9789 47.3642 55.1985V70.6246L40.3326 65.3509ZM15.7896 20.9099L23.4466 19.2828L26.2169 10.5525L34.0668 13.0778L40.2893 6.76516L46.0179 12.8809L54.7345 10.7674L56.3596 18.4243L65.0903 21.1947L62.5803 28.9973L68.793 35.5145L62.755 40.9682L64.8755 49.7111L57.2215 51.338L54.5056 59.8808L52.0517 59.13V52.8415C57.7011 49.0528 61.4272 42.6087 61.4272 35.3104C61.4272 23.6788 51.9641 14.2157 40.3324 14.2157C28.7008 14.2157 19.2377 23.6788 19.2377 35.3104C19.2377 42.6089 22.9638 49.0528 28.6131 52.8415V59.1003L26.0883 59.7644L24.2653 52.1862L15.5744 49.4264L18.0845 41.6232L11.8719 35.106L17.9098 29.6523L15.7896 20.9099Z" fill="#525252"/>
</svg>
