<svg width="82" height="80" viewBox="0 0 82 80" fill="none" xmlns="http://www.w3.org/2000/svg">
<g clip-path="url(#clip0_152_180)">
<path d="M38.8063 56.4062C38.8063 52.5292 35.6116 49.375 31.6849 49.375C27.7581 49.375 24.5635 52.5292 24.5635 56.4062C24.5635 60.2833 27.7581 63.4375 31.6849 63.4375C35.6116 63.4375 38.8063 60.2833 38.8063 56.4062ZM31.6849 58.75C30.376 58.75 29.3111 57.6986 29.3111 56.4062C29.3111 55.1139 30.376 54.0625 31.6849 54.0625C32.9938 54.0625 34.0587 55.1139 34.0587 56.4062C34.0587 57.6986 32.9938 58.75 31.6849 58.75Z" fill="white"/>
<path d="M57.7965 56.4062C57.7965 52.5292 54.6018 49.375 50.6751 49.375C46.7484 49.375 43.5537 52.5292 43.5537 56.4062C43.5537 60.2833 46.7484 63.4375 50.6751 63.4375C54.6018 63.4375 57.7965 60.2833 57.7965 56.4062ZM50.6751 58.75C49.3662 58.75 48.3013 57.6986 48.3013 56.4062C48.3013 55.1139 49.3662 54.0625 50.6751 54.0625C51.984 54.0625 53.0489 55.1139 53.0489 56.4062C53.0489 57.6986 51.984 58.75 50.6751 58.75Z" fill="white"/>
<path d="M76.7867 56.4062C76.7867 52.5292 73.5921 49.375 69.6653 49.375C65.7386 49.375 62.5439 52.5292 62.5439 56.4062C62.5439 60.2833 65.7386 63.4375 69.6653 63.4375C73.5921 63.4375 76.7867 60.2833 76.7867 56.4062ZM69.6653 58.75C68.3564 58.75 67.2915 57.6986 67.2915 56.4062C67.2915 55.1139 68.3564 54.0625 69.6653 54.0625C70.9743 54.0625 72.0391 55.1139 72.0391 56.4062C72.0391 57.6986 70.9743 58.75 69.6653 58.75Z" fill="white"/>
<path d="M69.6652 63.4375C65.7868 63.4375 62.3372 65.2841 60.17 68.1331C58.0029 65.2841 54.5533 63.4375 50.6749 63.4375C46.7964 63.4375 43.3468 65.2841 41.1797 68.1331C39.0125 65.2841 35.5629 63.4375 31.6845 63.4375C25.1443 63.4375 19.6572 68.6984 19.6572 75.1562V77.5H81.6925V75.1562C81.6925 68.6989 76.2058 63.4375 69.6652 63.4375ZM24.8376 72.8125C25.8622 70.1122 28.5843 68.125 31.6845 68.125C34.7794 68.125 37.4194 70.0842 38.3992 72.8125H24.8376ZM43.9602 72.8125C44.9398 70.0842 47.5799 68.125 50.6749 68.125C53.7698 68.125 56.4098 70.0842 57.3895 72.8125H43.9602ZM62.9506 72.8125C63.9301 70.0842 66.5703 68.125 69.6652 68.125C72.7654 68.125 75.4875 70.1122 76.5121 72.8125H62.9506Z" fill="white"/>
<path d="M14.9098 14.2188C14.9098 10.3417 11.7151 7.1875 7.78839 7.1875C3.86165 7.1875 0.666992 10.3417 0.666992 14.2188C0.666992 18.0958 3.86165 21.25 7.78839 21.25C11.7151 21.25 14.9098 18.0958 14.9098 14.2188ZM7.78839 16.5625C6.47947 16.5625 5.41459 15.5111 5.41459 14.2188C5.41459 12.9264 6.47947 11.875 7.78839 11.875C9.0973 11.875 10.1622 12.9264 10.1622 14.2188C10.1622 15.5111 9.0973 16.5625 7.78839 16.5625Z" fill="white"/>
<path d="M19.6574 25.143C19.0772 25.2912 18.4746 25.3689 17.8596 25.3689C15.9574 25.3689 14.1692 24.6375 12.8242 23.3094C11.4789 21.9814 9.69059 21.25 7.78839 21.25C5.88618 21.25 4.09792 21.9814 2.75293 23.3095C1.36457 24.6803 0.670474 26.4808 0.670474 28.2812H0.666992V77.5H14.9098V39.22C15.8881 39.3536 16.8739 39.4214 17.8598 39.4214C18.4596 39.4214 19.0593 39.3952 19.6574 39.3458V44.6875H81.6926V2.5H19.6574V25.143ZM5.41459 72.8125V49.375H10.1622V72.8125H5.41459ZM10.1622 44.6875H5.41459V35.4834C6.90407 36.5386 8.50068 37.3817 10.1622 38.0128V44.6875ZM17.8596 34.7439C13.4213 34.7439 9.24843 33.0373 6.10995 29.9386C5.18433 29.0247 5.18449 27.5378 6.10995 26.6241C7.03748 25.7081 8.53898 25.708 9.46714 26.6241C11.7088 28.8375 14.6893 30.0564 17.8596 30.0564C20.2236 30.0564 22.4817 29.3789 24.4069 28.1166L27.8126 31.4792C24.9554 33.5981 21.4968 34.7439 17.8596 34.7439ZM76.945 7.1875V40H24.405V38.4141C27.5382 37.4239 30.4843 35.7038 32.9665 33.2531L34.6449 31.5959L30.7118 27.7127L42.7001 15.8761L39.3431 12.5616L27.3548 24.3981L24.5738 21.6522L24.405 21.8188V7.1875H76.945Z" fill="white"/>
<path d="M42.8578 34.6259L50.6746 26.9083L55.4222 31.5958L64.9174 22.2208V25.9375H69.665V14.2188H57.796V18.9062H61.5604L55.4222 24.9667L50.6746 20.2792L39.501 31.3116L42.8578 34.6259Z" fill="white"/>
</g>
<defs>
<clipPath id="clip0_152_180">
<rect width="81.0256" height="80" fill="white" transform="translate(0.666992)"/>
</clipPath>
</defs>
</svg>
