<svg width="28" height="28" viewBox="0 0 28 28" fill="none" xmlns="http://www.w3.org/2000/svg">
<rect width="28" height="28" rx="14" fill="white"/>
<path d="M19.2829 11.1887C19.2883 11.3119 19.2883 11.4295 19.2883 11.5527C19.2937 15.2879 16.5494 19.5999 11.5308 19.5999C10.0507 19.5999 8.5975 19.1575 7.34961 18.3287C7.56569 18.3567 7.78178 18.3679 7.99786 18.3679C9.22414 18.3679 10.418 17.9423 11.385 17.1527C10.2181 17.1303 9.19173 16.3407 8.83519 15.1871C9.24575 15.2711 9.66711 15.2543 10.0669 15.1367C8.79738 14.8791 7.88442 13.7199 7.87902 12.3703C7.87902 12.3591 7.87902 12.3479 7.87902 12.3367C8.25716 12.5551 8.68393 12.6783 9.1161 12.6895C7.92223 11.8607 7.54949 10.2087 8.27337 8.91507C9.66171 10.6847 11.7037 11.7543 13.897 11.8719C13.6755 10.8919 13.978 9.86147 14.6857 9.16707C15.7823 8.09747 17.511 8.15347 18.5482 9.29027C19.1586 9.16707 19.7475 8.93187 20.2823 8.60147C20.077 9.25667 19.6502 9.81107 19.083 10.1639C19.6232 10.0967 20.1526 9.94547 20.6496 9.72147C20.2823 10.2927 19.8177 10.7855 19.2829 11.1887Z" fill="#525252"/>
</svg>
