<svg width="149" height="39" viewBox="0 0 149 39" fill="none" xmlns="http://www.w3.org/2000/svg">
<path fill-rule="evenodd" clip-rule="evenodd" d="M4.47104 19.7353L19.6083 4.5L34.7455 19.7353L19.6083 34.9706L4.47104 19.7353ZM7.63254 19.7353L19.6083 7.68198L31.584 19.7353L19.6083 31.7886L7.63254 19.7353Z" fill="white"/>
<path fill-rule="evenodd" clip-rule="evenodd" d="M19.3745 39C30.0748 39 38.749 30.2696 38.749 19.5C38.749 8.73045 30.0748 0 19.3745 0C8.67426 0 0 8.73045 0 19.5C0 30.2696 8.67426 39 19.3745 39ZM19.3745 36.75C28.8401 36.75 36.5135 29.0269 36.5135 19.5C36.5135 9.97309 28.8401 2.25 19.3745 2.25C9.90891 2.25 2.23552 9.97309 2.23552 19.5C2.23552 29.0269 9.90891 36.75 19.3745 36.75Z" fill="white"/>
<path d="M48.3469 30V7.65H52.4006V17.5869L60.7465 7.65H65.8435L58.1418 16.8371L66.1118 30H61.3427L55.3813 20.16L52.4006 23.73V30H48.3469Z" fill="white"/>
<path fill-rule="evenodd" clip-rule="evenodd" d="M75.5958 30.36C74.0061 30.36 72.5555 29.99 71.2439 29.25C69.9523 28.51 68.919 27.5 68.144 26.22C67.3889 24.94 67.0114 23.48 67.0114 21.84C67.0114 20.2 67.3889 18.74 68.144 17.46C68.919 16.18 69.9523 15.17 71.2439 14.43C72.5356 13.69 73.9862 13.32 75.5958 13.32C77.1855 13.32 78.6261 13.69 79.9178 14.43C81.2094 15.17 82.2328 16.18 82.9879 17.46C83.7629 18.72 84.1503 20.18 84.1503 21.84C84.1503 23.48 83.7629 24.94 82.9879 26.22C82.2129 27.5 81.1796 28.51 79.888 29.25C78.5963 29.99 77.1656 30.36 75.5958 30.36ZM75.5958 26.76C76.4701 26.76 77.2351 26.55 77.8909 26.13C78.5665 25.71 79.0931 25.13 79.4707 24.39C79.8681 23.63 80.0668 22.78 80.0668 21.84C80.0668 20.88 79.8681 20.04 79.4707 19.32C79.0931 18.58 78.5665 18 77.8909 17.58C77.2351 17.14 76.4701 16.92 75.5958 16.92C74.7015 16.92 73.9166 17.14 73.241 17.58C72.5654 18 72.0289 18.58 71.6314 19.32C71.2539 20.04 71.0651 20.88 71.0651 21.84C71.0651 22.78 71.2539 23.63 71.6314 24.39C72.0289 25.13 72.5654 25.71 73.241 26.13C73.9166 26.55 74.7015 26.76 75.5958 26.76Z" fill="white"/>
<path fill-rule="evenodd" clip-rule="evenodd" d="M94.8017 30.36C93.1325 30.36 91.6719 29.98 90.4201 29.22C89.1682 28.46 88.1945 27.43 87.499 26.13C86.8035 24.83 86.4557 23.39 86.4557 21.81C86.4557 20.17 86.8035 18.72 87.499 17.46C88.2143 16.18 89.1781 15.17 90.3902 14.43C91.6223 13.69 92.9934 13.32 94.5036 13.32C95.7754 13.32 96.8882 13.53 97.842 13.95C98.8157 14.37 99.6403 14.95 100.316 15.69C100.992 16.43 101.508 17.28 101.866 18.24C102.224 19.18 102.402 20.2 102.402 21.3C102.402 21.58 102.383 21.87 102.343 22.17C102.323 22.47 102.273 22.73 102.194 22.95H90.5108C90.561 23.5114 90.6897 24.0314 90.897 24.51C91.2546 25.27 91.7713 25.86 92.4469 26.28C93.1424 26.7 93.9373 26.91 94.8315 26.91C95.7257 26.91 96.4808 26.72 97.0968 26.34C97.7327 25.96 98.2295 25.45 98.5872 24.81L101.747 26.37C101.429 27.15 100.932 27.84 100.256 28.44C99.5807 29.04 98.7759 29.51 97.842 29.85C96.9279 30.19 95.9145 30.36 94.8017 30.36ZM90.8672 18.99C90.7467 19.2856 90.6547 19.6056 90.5913 19.95H98.2293C98.1976 19.5791 98.1182 19.2291 97.991 18.9C97.7327 18.18 97.2955 17.61 96.6795 17.19C96.0834 16.77 95.3581 16.56 94.5036 16.56C93.6889 16.56 92.9636 16.77 92.3277 17.19C91.6918 17.59 91.205 18.19 90.8672 18.99Z" fill="white"/>
<path d="M105.362 13.68H109.029V15.6824C109.404 15.0126 109.921 14.4851 110.579 14.1C111.453 13.58 112.466 13.32 113.619 13.32C114.811 13.32 115.864 13.58 116.778 14.1C117.712 14.62 118.438 15.35 118.954 16.29C119.471 17.21 119.729 18.28 119.729 19.5V30H115.825V20.43C115.825 19.71 115.686 19.09 115.407 18.57C115.129 18.05 114.742 17.65 114.245 17.37C113.768 17.07 113.202 16.92 112.546 16.92C111.91 16.92 111.344 17.07 110.847 17.37C110.35 17.65 109.963 18.05 109.684 18.57C109.406 19.09 109.267 19.71 109.267 20.43V30H105.362V13.68Z" fill="white"/>
<path d="M130.423 30.18C128.595 30.18 127.174 29.68 126.161 28.68C125.167 27.66 124.671 26.23 124.671 24.39V17.19H121.869V13.68H122.167C122.962 13.68 123.578 13.47 124.015 13.05C124.452 12.63 124.671 12.02 124.671 11.22V9.96H128.575V13.68H132.301V17.19H128.575V24.18C128.575 24.72 128.665 25.18 128.844 25.56C129.042 25.94 129.34 26.23 129.738 26.43C130.155 26.63 130.682 26.73 131.318 26.73C131.457 26.73 131.616 26.72 131.794 26.7C131.993 26.68 132.182 26.66 132.361 26.64V30C132.083 30.04 131.765 30.08 131.407 30.12C131.049 30.16 130.721 30.18 130.423 30.18Z" fill="white"/>
<path d="M135.35 36.63C135.092 36.63 134.823 36.62 134.545 36.6C134.267 36.58 134.038 36.55 133.859 36.51V33.09C134.217 33.15 134.575 33.18 134.933 33.18C135.767 33.18 136.413 32.98 136.87 32.58C137.347 32.2 137.585 31.61 137.585 30.81V13.68H141.49V30.81C141.49 32.05 141.242 33.1 140.745 33.96C140.248 34.84 139.533 35.5 138.599 35.94C137.685 36.4 136.602 36.63 135.35 36.63Z" fill="white"/>
<path d="M137.585 11.85V7.65H141.49V11.85H137.585Z" fill="white"/>
<path d="M145.095 13.68H149V30H145.095V13.68Z" fill="white"/>
<path d="M145.095 11.85V7.65H149V11.85H145.095Z" fill="white"/>
</svg>
