<svg width="327" height="580" viewBox="0 0 327 580" fill="none" xmlns="http://www.w3.org/2000/svg">
<g opacity="0.12">
<path fill-rule="evenodd" clip-rule="evenodd" d="M-186.077 293.499L40.499 66.9231L267.075 293.499L40.4991 520.075L-186.077 293.499ZM-138.755 293.499L40.499 114.245L219.753 293.499L40.4991 472.753L-138.755 293.499Z" fill="white"/>
<path fill-rule="evenodd" clip-rule="evenodd" d="M37 580C197.163 580 327 450.163 327 290C327 129.837 197.163 0 37 0C-123.163 0 -253 129.837 -253 290C-253 450.163 -123.163 580 37 580ZM37 546.538C178.682 546.538 293.538 431.682 293.538 290C293.538 148.318 178.682 33.4615 37 33.4615C-104.682 33.4615 -219.538 148.318 -219.538 290C-219.538 431.682 -104.682 546.538 37 546.538Z" fill="white"/>
</g>
</svg>
