<svg width="150" height="40" viewBox="0 0 150 40" fill="none" xmlns="http://www.w3.org/2000/svg">
<path fill-rule="evenodd" clip-rule="evenodd" d="M4.97104 20.2353L20.1083 5L35.2455 20.2353L20.1083 35.4706L4.97104 20.2353ZM8.13254 20.2353L20.1083 8.18198L32.084 20.2353L20.1083 32.2886L8.13254 20.2353Z" fill="white"/>
<path fill-rule="evenodd" clip-rule="evenodd" d="M19.8745 39.5C30.5748 39.5 39.249 30.7696 39.249 20C39.249 9.23045 30.5748 0.5 19.8745 0.5C9.17426 0.5 0.5 9.23045 0.5 20C0.5 30.7696 9.17426 39.5 19.8745 39.5ZM19.8745 37.25C29.3401 37.25 37.0135 29.5269 37.0135 20C37.0135 10.4731 29.3401 2.75 19.8745 2.75C10.4089 2.75 2.73552 10.4731 2.73552 20C2.73552 29.5269 10.4089 37.25 19.8745 37.25Z" fill="white"/>
<path d="M48.8469 30.5V8.15H52.9006V18.0869L61.2465 8.15H66.3435L58.6418 17.3371L66.6118 30.5H61.8427L55.8813 20.66L52.9006 24.23V30.5H48.8469Z" fill="white"/>
<path fill-rule="evenodd" clip-rule="evenodd" d="M76.0958 30.86C74.5061 30.86 73.0554 30.49 71.7439 29.75C70.4523 29.01 69.419 28 68.644 26.72C67.8889 25.44 67.5114 23.98 67.5114 22.34C67.5114 20.7 67.8889 19.24 68.644 17.96C69.419 16.68 70.4523 15.67 71.7439 14.93C73.0356 14.19 74.4862 13.82 76.0958 13.82C77.6855 13.82 79.1261 14.19 80.4178 14.93C81.7094 15.67 82.7328 16.68 83.4879 17.96C84.2629 19.22 84.6503 20.68 84.6503 22.34C84.6503 23.98 84.2629 25.44 83.4879 26.72C82.7129 28 81.6796 29.01 80.388 29.75C79.0963 30.49 77.6656 30.86 76.0958 30.86ZM76.0958 27.26C76.9701 27.26 77.7351 27.05 78.3909 26.63C79.0665 26.21 79.5931 25.63 79.9707 24.89C80.3681 24.13 80.5668 23.28 80.5668 22.34C80.5668 21.38 80.3681 20.54 79.9707 19.82C79.5931 19.08 79.0665 18.5 78.3909 18.08C77.7351 17.64 76.9701 17.42 76.0958 17.42C75.2015 17.42 74.4166 17.64 73.741 18.08C73.0654 18.5 72.5289 19.08 72.1314 19.82C71.7539 20.54 71.5651 21.38 71.5651 22.34C71.5651 23.28 71.7539 24.13 72.1314 24.89C72.5289 25.63 73.0654 26.21 73.741 26.63C74.4166 27.05 75.2015 27.26 76.0958 27.26Z" fill="white"/>
<path fill-rule="evenodd" clip-rule="evenodd" d="M95.3017 30.86C93.6325 30.86 92.1719 30.48 90.9201 29.72C89.6682 28.96 88.6945 27.93 87.999 26.63C87.3035 25.33 86.9557 23.89 86.9557 22.31C86.9557 20.67 87.3035 19.22 87.999 17.96C88.7143 16.68 89.6781 15.67 90.8902 14.93C92.1223 14.19 93.4934 13.82 95.0036 13.82C96.2754 13.82 97.3882 14.03 98.342 14.45C99.3157 14.87 100.14 15.45 100.816 16.19C101.492 16.93 102.008 17.78 102.366 18.74C102.724 19.68 102.902 20.7 102.902 21.8C102.902 22.08 102.883 22.37 102.843 22.67C102.823 22.97 102.773 23.23 102.694 23.45H91.0108C91.061 24.0114 91.1897 24.5314 91.397 25.01C91.7547 25.77 92.2713 26.36 92.9469 26.78C93.6424 27.2 94.4373 27.41 95.3315 27.41C96.2257 27.41 96.9808 27.22 97.5968 26.84C98.2327 26.46 98.7295 25.95 99.0872 25.31L102.247 26.87C101.929 27.65 101.432 28.34 100.756 28.94C100.081 29.54 99.2759 30.01 98.342 30.35C97.4279 30.69 96.4145 30.86 95.3017 30.86ZM91.3672 19.49C91.2467 19.7856 91.1547 20.1056 91.0913 20.45H98.7293C98.6976 20.0791 98.6182 19.7291 98.491 19.4C98.2327 18.68 97.7955 18.11 97.1795 17.69C96.5834 17.27 95.8581 17.06 95.0036 17.06C94.1889 17.06 93.4636 17.27 92.8277 17.69C92.1918 18.09 91.705 18.69 91.3672 19.49Z" fill="white"/>
<path d="M105.862 14.18H109.529V16.1824C109.904 15.5126 110.421 14.9851 111.079 14.6C111.953 14.08 112.966 13.82 114.119 13.82C115.311 13.82 116.364 14.08 117.278 14.6C118.212 15.12 118.938 15.85 119.454 16.79C119.971 17.71 120.229 18.78 120.229 20V30.5H116.325V20.93C116.325 20.21 116.186 19.59 115.907 19.07C115.629 18.55 115.242 18.15 114.745 17.87C114.268 17.57 113.702 17.42 113.046 17.42C112.41 17.42 111.844 17.57 111.347 17.87C110.85 18.15 110.463 18.55 110.184 19.07C109.906 19.59 109.767 20.21 109.767 20.93V30.5H105.862V14.18Z" fill="white"/>
<path d="M130.923 30.68C129.095 30.68 127.674 30.18 126.661 29.18C125.667 28.16 125.171 26.73 125.171 24.89V17.69H122.369V14.18H122.667C123.462 14.18 124.078 13.97 124.515 13.55C124.952 13.13 125.171 12.52 125.171 11.72V10.46H129.075V14.18H132.801V17.69H129.075V24.68C129.075 25.22 129.165 25.68 129.344 26.06C129.542 26.44 129.84 26.73 130.238 26.93C130.655 27.13 131.182 27.23 131.818 27.23C131.957 27.23 132.116 27.22 132.294 27.2C132.493 27.18 132.682 27.16 132.861 27.14V30.5C132.583 30.54 132.265 30.58 131.907 30.62C131.549 30.66 131.221 30.68 130.923 30.68Z" fill="white"/>
<path d="M135.85 37.13C135.591 37.13 135.323 37.12 135.045 37.1C134.767 37.08 134.538 37.05 134.359 37.01V33.59C134.717 33.65 135.075 33.68 135.433 33.68C136.267 33.68 136.913 33.48 137.37 33.08C137.847 32.7 138.085 32.11 138.085 31.31V14.18H141.99V31.31C141.99 32.55 141.742 33.6 141.245 34.46C140.748 35.34 140.033 36 139.099 36.44C138.185 36.9 137.102 37.13 135.85 37.13Z" fill="white"/>
<path d="M138.085 12.35V8.15H141.99V12.35H138.085Z" fill="white"/>
<path d="M145.595 14.18H149.5V30.5H145.595V14.18Z" fill="white"/>
<path d="M145.595 12.35V8.15H149.5V12.35H145.595Z" fill="white"/>
</svg>
